<?xml version="1.0" standalone="no"?>
<!DOCTYPE svg PUBLIC "-//W3C//DTD SVG 20010904//EN"
 "http://www.w3.org/TR/2001/REC-SVG-20010904/DTD/svg10.dtd">
<svg version="1.0" xmlns="http://www.w3.org/2000/svg"
 width="300.000000pt" height="300.000000pt" viewBox="0 0 300.000000 300.000000"
 preserveAspectRatio="xMidYMid meet">
<metadata>
Created by potrace 1.14, written by Peter Selinger 2001-2017
</metadata>
<g transform="translate(0.000000,300.000000) scale(0.100000,-0.100000)"
fill="#000000" stroke="none">
<path d="M1858 2532 c-20 -21 -38 -43 -40 -49 -2 -7 43 -59 100 -116 l102
-104 -105 -107 c-58 -58 -105 -109 -105 -114 0 -4 45 -52 100 -107 55 -55 100
-103 100 -107 0 -4 -47 -56 -105 -115 l-104 -107 92 -91 c51 -51 98 -99 106
-109 13 -16 4 -28 -93 -125 l-108 -108 106 -109 107 -108 -108 -108 c-59 -59
-104 -110 -101 -114 3 -3 73 -73 154 -155 l148 -149 43 42 c24 23 43 45 43 48
0 3 -47 54 -104 113 l-105 107 110 107 109 108 -105 105 c-58 58 -105 108
-105 112 0 4 48 55 106 113 l106 107 -43 42 c-24 24 -73 72 -108 109 l-64 65
107 106 c58 58 106 108 106 111 0 2 -47 53 -105 111 l-105 107 102 103 c57 57
104 107 106 112 2 7 -290 312 -299 312 -2 0 -21 -17 -41 -38z"/>
<path d="M1077 2309 c-57 -13 -128 -53 -174 -98 -159 -153 -138 -429 42 -559
108 -79 257 -93 375 -35 36 17 77 43 91 56 242 221 101 628 -222 641 -41 2
-91 0 -112 -5z m182 -173 c147 -76 157 -272 20 -363 -58 -38 -148 -44 -208
-14 -54 28 -78 53 -101 104 -21 47 -20 139 2 178 22 40 84 95 119 106 45 14
131 8 168 -11z"/>
<path d="M1145 1423 c-161 -24 -256 -89 -316 -216 -87 -186 -8 -400 181 -490
57 -27 75 -31 155 -32 82 0 96 3 157 33 118 58 198 170 210 295 20 196 -119
376 -312 405 -30 4 -64 6 -75 5z m113 -182 c103 -53 146 -174 97 -277 -25 -54
-44 -73 -104 -104 -111 -56 -256 11 -291 135 -49 175 137 328 298 246z"/>
</g>
</svg>
